<?xml version="1.0" standalone="no"?>
<!DOCTYPE svg PUBLIC "-//W3C//DTD SVG 20010904//EN"
 "http://www.w3.org/TR/2001/REC-SVG-20010904/DTD/svg10.dtd">
<svg version="1.0" xmlns="http://www.w3.org/2000/svg"
 width="600.000000pt" height="600.000000pt" viewBox="0 0 600.000000 600.000000"
 preserveAspectRatio="xMidYMid meet">
<metadata>
Created by potrace 1.11, written by Peter Selinger 2001-2013
</metadata>
<g transform="translate(0.000000,600.000000) scale(0.100000,-0.100000)"
fill="#000000" stroke="none">
<path d="M2201 5433 c-106 -107 -219 -251 -232 -295 -5 -18 -11 -75 -14 -128
-11 -181 -9 -175 -64 -188 -27 -6 -66 -8 -86 -5 -28 4 -49 0 -79 -15 -22 -11
-61 -28 -86 -38 -70 -27 -93 -58 -113 -149 -28 -128 -35 -171 -52 -332 -9 -84
-22 -168 -30 -185 -9 -22 -11 -56 -8 -103 3 -39 0 -94 -7 -125 -7 -30 -12 -77
-11 -104 0 -27 -6 -156 -14 -287 -11 -176 -19 -246 -31 -272 -15 -32 -15 -38
0 -84 9 -27 14 -56 11 -64 -3 -8 -40 -35 -81 -61 -59 -37 -85 -48 -117 -48
-46 0 -292 -26 -335 -36 -15 -3 -40 -10 -55 -16 -25 -10 -28 -15 -23 -42 16
-78 273 -425 345 -465 24 -13 101 -45 173 -71 71 -26 136 -54 145 -62 10 -11
18 -50 24 -125 4 -60 18 -201 29 -312 18 -182 18 -209 6 -260 -34 -132 -53
-368 -36 -432 24 -90 125 -306 150 -319 50 -27 327 -80 520 -99 378 -38 999
-46 1380 -18 589 44 929 95 974 146 20 23 60 140 86 251 26 113 28 218 4 400
-14 110 -15 155 -4 385 7 143 15 300 19 349 l6 88 105 37 c195 70 203 75 278
169 164 210 261 364 249 395 -8 22 -174 51 -356 63 -99 7 -108 9 -166 46 l-61
38 -12 232 c-18 343 -48 695 -88 1028 -52 437 -55 441 -349 490 -194 33 -175
24 -175 80 0 78 -20 252 -32 274 -14 27 -105 142 -182 230 -63 72 -129 126
-153 126 -20 0 -71 -115 -137 -308 -52 -153 -60 -168 -113 -229 l-57 -64 -100
7 c-56 4 -148 8 -206 10 -58 1 -124 5 -148 9 -27 5 -47 3 -56 -4 -8 -6 -59
-15 -115 -19 l-101 -8 -65 79 c-36 44 -65 86 -65 93 0 20 -107 319 -137 382
-18 38 -30 52 -45 52 -13 0 -54 -34 -107 -87z m159 -15 c46 -103 120 -316 120
-346 0 -27 38 -89 89 -145 29 -32 19 -52 -22 -42 -19 5 -28 16 -33 38 -10 50
-32 86 -102 170 -68 82 -106 108 -127 85 -7 -7 -40 -72 -74 -145 -84 -178 -80
-199 42 -205 49 -2 47 -13 -5 -26 -58 -15 -87 1 -117 61 -37 75 -39 164 -7
260 27 81 122 280 157 329 31 42 47 35 79 -34z m1361 -27 c100 -175 156 -339
145 -429 -13 -110 -49 -162 -110 -162 -60 0 -80 17 -30 25 72 12 94 25 94 55
0 15 -32 91 -70 169 -82 166 -81 166 -168 73 -69 -73 -110 -137 -125 -189 -11
-43 -37 -60 -72 -47 -14 6 -13 10 7 33 57 62 81 106 103 190 13 48 49 152 81
230 69 174 74 176 145 52z m-1286 -620 c60 -28 89 -50 47 -37 -18 6 -92 -18
-92 -29 0 -3 10 -10 23 -15 17 -7 18 -9 5 -9 -10 -1 -18 -9 -19 -18 -1 -10 -7
0 -13 22 -15 47 -27 115 -20 115 2 0 34 -13 69 -29z m1234 -3 c-4 -18 -11 -50
-14 -70 l-6 -38 -21 20 c-12 11 -30 20 -40 20 -10 0 -18 5 -18 10 0 6 11 10
25 10 14 0 25 5 25 10 0 20 -32 23 -68 5 -37 -18 -37 -18 -12 -25 21 -7 19 -8
-12 -7 l-37 0 24 18 c30 24 133 75 157 78 3 1 2 -14 -3 -31z m-909 -8 c32 -16
61 -34 65 -40 4 -7 71 -10 191 -9 164 1 187 4 208 20 13 10 45 28 70 38 41 18
49 19 80 6 38 -16 56 -35 32 -35 -8 0 -21 -3 -29 -6 -11 -4 -17 2 -19 18 -2
13 -9 -7 -17 -48 l-14 -72 -58 -18 c-48 -15 -56 -21 -46 -33 10 -12 8 -13 -13
-6 -32 10 -52 25 -47 38 4 14 -31 49 -42 43 -4 -3 -26 4 -47 15 -27 14 -49 18
-74 14 -19 -3 -50 -7 -67 -8 -18 -1 -33 -7 -33 -13 0 -18 -79 -47 -108 -38
-15 4 -32 8 -39 10 -35 7 -49 26 -59 81 -7 36 -12 47 -13 29 -1 -24 -3 -27
-16 -16 -8 7 -26 10 -40 8 -14 -3 -25 -4 -25 -2 0 5 84 54 93 54 4 0 34 -13
67 -30z m-618 -40 c21 -6 40 -15 43 -20 6 -9 -51 -70 -66 -70 -13 0 -61 79
-54 90 8 13 31 12 77 0z m389 -7 c13 -16 12 -17 -3 -4 -10 7 -18 15 -18 17 0
8 8 3 21 -13z m1432 -10 c-5 -12 -3 -14 7 -8 8 5 11 3 8 -6 -3 -8 -10 -14 -17
-14 -7 0 -18 -8 -25 -17 -19 -26 -38 -22 -71 12 -21 22 -25 31 -14 34 8 2 21
7 29 9 8 3 32 6 52 6 31 1 36 -2 31 -16z m-213 -3 c0 -12 -27 -12 -55 0 -16 7
-13 9 18 9 20 1 37 -3 37 -9z m-1400 -20 c0 -5 -4 -10 -9 -10 -6 0 -13 5 -16
10 -3 6 1 10 9 10 9 0 16 -4 16 -10z m1761 -5 c55 -8 113 -21 127 -29 38 -20
65 -52 56 -67 -4 -8 -3 -10 5 -5 14 9 36 -42 45 -104 3 -25 3 -39 0 -32 -4 9
-12 7 -31 -8 -32 -25 -45 -25 -68 0 -15 16 -15 22 -5 35 7 8 20 15 29 15 14 1
14 2 -1 14 -10 7 -18 18 -18 25 0 9 -5 9 -20 1 -11 -6 -19 -7 -19 -3 1 4 -3
21 -9 36 -7 16 -12 36 -12 44 0 13 -5 12 -24 -6 -20 -19 -28 -21 -45 -12 -12
7 -21 17 -21 24 0 20 -24 67 -34 67 -4 0 -5 -8 -1 -17 15 -37 17 -53 7 -53 -6
0 -17 10 -23 23 -6 12 -21 32 -32 45 -11 12 -17 22 -14 22 4 0 52 -7 108 -15z
m-2099 -38 c-12 -13 -20 -25 -18 -28 3 -2 -6 -9 -20 -16 -26 -12 -29 -7 -18
34 6 22 20 30 58 32 18 1 18 0 -2 -22z m-65 -4 c-3 -10 -8 -35 -12 -57 l-6
-38 -22 19 c-28 26 -52 40 -44 25 6 -8 -5 -38 -30 -81 -2 -2 -9 1 -17 8 -11 9
-15 8 -20 -6 -4 -10 -3 -19 2 -21 15 -5 1 -52 -21 -67 -18 -13 -24 -12 -56 7
-19 12 -32 18 -29 12 4 -5 0 -20 -8 -34 -13 -24 -14 -23 -8 20 8 62 32 136 49
150 8 6 11 18 9 25 -4 10 6 16 33 20 21 3 54 12 73 20 19 7 52 13 73 14 32 1
38 -2 34 -16z m705 -19 c53 -17 76 -38 27 -24 -30 9 -31 8 -15 -9 15 -16 14
-18 -19 -34 -41 -19 -71 -22 -80 -6 -4 6 -13 8 -20 5 -8 -3 -18 7 -25 24 -17
42 -39 58 -32 25 3 -18 0 -25 -10 -25 -9 0 -27 -9 -42 -21 -23 -18 -25 -19
-19 -2 3 10 21 36 39 59 l33 41 58 -9 c32 -5 79 -16 105 -24z m951 -42 c41
-62 65 -112 54 -112 -3 0 -31 18 -63 39 -32 22 -62 37 -66 35 -11 -7 -10 -1 7
39 25 59 16 56 -16 -5 -16 -33 -36 -58 -45 -58 -8 0 -13 3 -11 8 3 4 -5 8 -16
8 -12 1 -55 10 -96 21 l-74 20 54 26 c62 31 196 61 221 50 4 -2 27 -34 51 -71z
m-733 49 c0 -6 -5 -13 -10 -16 -6 -4 -8 -11 -5 -16 4 -5 -3 -9 -15 -9 -20 0
-21 1 -3 25 19 25 33 32 33 16z m-527 -37 c26 -9 50 -20 53 -26 7 -11 -62 -85
-87 -93 -11 -4 -15 -13 -12 -25 3 -12 -1 -22 -11 -26 -9 -3 -16 -10 -16 -15 0
-6 9 -5 20 1 11 6 20 8 20 6 0 -3 -9 -10 -19 -16 -18 -9 -30 2 -102 85 -45 52
-84 93 -87 91 -2 -3 24 -37 57 -78 l62 -72 -36 -18 c-32 -17 -38 -17 -65 -3
-16 8 -41 13 -55 11 -19 -4 -25 0 -25 14 0 31 40 148 56 165 22 21 183 21 247
-1z m1593 8 c16 -10 54 -117 54 -150 0 -25 -5 -29 -47 -41 -26 -6 -62 -23 -80
-37 -26 -20 -37 -23 -52 -14 -29 15 -35 12 -20 -7 13 -16 12 -17 -3 -4 -22 17
-18 25 64 121 82 97 92 110 85 110 -3 0 -47 -47 -97 -104 l-92 -105 -29 21
c-15 12 -26 25 -24 29 3 4 1 19 -5 33 -6 18 -6 26 1 26 5 0 -6 17 -26 37 -19
20 -34 41 -32 47 8 25 92 45 192 45 55 1 105 -3 111 -7z m-1913 -101 c14 -14
-24 -74 -53 -82 -14 -4 -18 -7 -9 -8 14 -1 24 -31 9 -31 -3 0 -28 23 -55 50
-48 49 -90 73 -47 27 12 -13 19 -27 15 -32 -5 -4 -3 -5 4 -1 6 3 14 3 17 -2 2
-4 -9 -14 -26 -21 -16 -7 -39 -28 -50 -45 l-20 -31 6 52 c10 81 31 121 69 132
36 12 126 6 140 -8z m2129 9 c32 -9 38 -17 52 -58 8 -26 18 -63 22 -82 l7 -35
-25 30 c-14 17 -29 41 -33 55 -7 24 -6 24 8 5 14 -19 15 -18 10 8 -3 16 -10
24 -17 20 -6 -4 -5 1 3 10 8 10 9 17 3 17 -6 0 -13 -4 -16 -9 -4 -5 -29 -29
-58 -52 -33 -28 -47 -36 -40 -22 10 18 9 22 -13 27 -26 7 -62 63 -48 76 20 20
92 24 145 10z m-2369 -149 c4 -4 3 -21 -3 -37 -6 -16 -8 -25 -4 -21 4 4 18
-18 31 -50 27 -66 27 -63 10 -63 -8 0 -34 22 -60 48 -25 27 -60 61 -77 76 -37
30 -34 53 7 59 32 5 84 -2 96 -12z m2571 9 c14 -5 26 -14 26 -20 0 -6 -20 -29
-44 -53 -25 -23 -58 -55 -74 -70 -23 -22 -31 -25 -35 -13 -3 8 2 30 12 49 10
21 16 48 13 70 -3 31 -1 36 20 40 41 8 56 7 82 -3z m-2686 -77 c-2 -11 3 -18
14 -18 9 0 30 -13 47 -29 l30 -29 -22 -17 c-15 -12 -27 -15 -38 -9 -19 10 -45
-7 -53 -36 -3 -11 -3 16 0 59 3 44 7 83 10 88 9 14 15 9 12 -9z m477 -4 c-4
-6 -13 -8 -19 -6 -7 3 -19 1 -27 -5 -11 -8 -10 -9 4 -4 30 10 19 -10 -38 -63
l-55 -52 -30 21 c-16 11 -32 25 -35 30 -3 6 -16 15 -28 21 -17 9 -15 4 9 -21
l32 -33 -44 -57 c-24 -32 -44 -66 -44 -77 -1 -15 -2 -15 -9 -3 -9 16 2 116 20
182 7 27 18 42 36 49 64 24 240 39 228 18z m1909 -4 c37 -8 74 -19 81 -25 19
-16 45 -137 45 -209 0 -34 2 -61 5 -61 11 0 54 52 60 72 4 13 11 28 16 33 4 6
4 17 -1 25 -20 31 -12 40 23 28 36 -13 131 -71 141 -87 4 -6 -41 -25 -116 -49
-105 -33 -123 -42 -126 -61 -3 -22 -2 -21 51 8 29 17 60 31 68 31 12 0 12 -2
0 -9 -9 -6 -10 -11 -2 -15 6 -4 15 -5 20 -1 5 3 12 1 16 -5 3 -5 15 -15 27
-21 11 -6 18 -7 14 -1 -3 5 1 15 9 22 20 16 19 30 -2 47 -17 14 -17 14 0 9 12
-4 16 -2 11 5 -4 7 -1 10 7 7 16 -5 25 -78 11 -87 -5 -3 -14 -19 -19 -36 -7
-21 -16 -29 -29 -27 -46 6 -91 6 -119 -1 -30 -8 -32 -5 -100 95 -47 68 -108
140 -185 215 l-115 113 70 0 c39 0 101 -7 139 -15z m271 -35 c-9 -15 24 -25
38 -11 19 19 27 12 27 -21 -1 -27 -2 -30 -11 -15 -7 12 -22 17 -51 17 -40 0
-41 0 -23 20 19 21 30 27 20 10z m-1517 -107 c3 -17 -13 -35 -68 -80 -108 -88
-513 -372 -531 -373 -9 0 -22 7 -29 15 -18 22 -7 112 20 165 63 123 250 249
415 279 98 18 108 19 150 17 33 -1 41 -5 43 -23z m-1016 0 c-4 -10 -8 -22 -7
-28 3 -20 35 -84 44 -90 10 -6 11 -45 1 -45 -10 0 -192 60 -207 69 -19 10 33
55 102 87 61 29 79 31 67 7z m-102 -151 c0 -11 8 -17 24 -17 13 0 22 3 19 8
-6 9 -2 9 37 -4 30 -11 32 -14 26 -48 l-5 -36 20 25 21 25 -18 -32 c-11 -19
-21 -28 -25 -22 -5 8 -8 8 -13 0 -4 -6 -22 -10 -41 -9 -19 1 -40 -4 -48 -11
-16 -13 -24 -6 -51 46 -16 31 -22 94 -10 106 11 11 64 -15 64 -31z m-43 -146
c-3 -8 -1 -18 5 -24 6 -6 1 -8 -17 -4 -21 4 -26 9 -21 26 3 11 6 30 6 41 0 18
1 18 16 -3 9 -13 13 -29 11 -36z m2783 -3 c0 -39 -16 -25 -18 15 -2 27 0 33 8
22 5 -8 10 -25 10 -37z m-96 -60 l48 -25 -5 -76 c-3 -42 -8 -88 -12 -102 -6
-23 -5 -23 8 -8 8 10 18 14 22 10 5 -4 5 2 1 13 -4 11 -4 16 0 13 10 -11 31
15 27 33 -3 9 0 20 6 23 8 5 11 -18 11 -73 l0 -81 -30 0 c-16 0 -30 -4 -30
-10 0 -5 5 -10 11 -10 7 0 18 -8 25 -17 13 -17 13 -17 15 2 4 44 14 -64 11
-114 l-4 -54 -25 25 c-17 18 -30 50 -44 114 -10 49 -31 125 -46 169 -15 46
-22 80 -16 82 6 2 19 11 29 19 17 13 15 13 -13 0 l-32 -16 -25 56 c-14 31 -26
58 -26 61 0 7 42 -8 94 -34z m-2593 -13 c-23 -52 -25 -54 -53 -41 l-23 12 22
-16 c21 -16 21 -18 6 -63 -9 -26 -19 -51 -23 -55 -10 -11 -24 128 -15 143 5 8
88 56 102 60 1 0 -6 -18 -16 -40z m-97 -145 c12 -46 11 -83 -8 -175 -10 -47
-20 -95 -22 -108 -3 -13 -9 -20 -14 -17 -13 8 0 158 14 168 8 6 7 10 -1 14
-14 5 -17 54 -7 126 5 36 9 43 19 34 6 -7 15 -26 19 -42z m-71 -356 c-10 -17
-24 -36 -32 -42 -12 -10 -13 -9 -6 3 14 24 48 70 52 70 2 0 -4 -14 -14 -31z
m1272 21 c-3 -5 -26 -10 -50 -10 -24 0 -47 5 -50 10 -4 6 15 10 50 10 35 0 54
-4 50 -10z m1635 -63 c-1 -13 -26 16 -41 48 -7 13 -1 10 15 -8 14 -15 26 -33
26 -40z m-2071 -9 c-2 -61 17 -178 42 -251 121 -361 552 -538 894 -368 176 88
294 228 344 411 12 41 21 91 21 111 0 19 3 39 7 43 4 4 6 27 4 51 l-2 44 38
-6 c21 -3 49 -10 63 -14 l25 -7 -27 -1 c-16 -1 -27 -4 -27 -8 5 -34 -3 -53
-23 -54 -13 0 22 -11 77 -24 125 -29 164 -43 146 -54 -7 -4 -14 -14 -15 -22
-2 -8 -7 -23 -11 -34 -91 -228 -150 -326 -275 -458 -176 -186 -385 -301 -639
-353 -67 -13 -117 -15 -250 -11 -164 5 -194 11 -361 63 -54 16 -212 103 -281
154 -73 55 -161 137 -211 198 -33 40 -37 24 -7 -27 12 -22 14 -28 4 -16 -47
57 -129 261 -141 354 -5 42 -3 51 22 81 16 18 51 43 79 56 27 13 45 23 38 23
-12 1 -67 51 -61 56 10 9 462 101 516 104 8 1 12 -13 11 -41z m339 -30 c18
-18 14 -46 -7 -58 -40 -21 -70 13 -45 49 17 24 34 27 52 9z m1693 -140 c8 -15
6 -18 -11 -18 -16 0 -20 6 -20 33 0 33 4 31 31 -15z m-2841 9 c0 -14 -6 -24
-14 -24 -11 0 -12 5 -3 24 5 13 12 23 14 23 1 0 3 -10 3 -23z m3066 -44 c53
-29 76 -36 113 -34 56 2 206 -14 324 -35 76 -14 87 -19 87 -36 0 -42 -264
-275 -384 -340 -55 -29 -69 -33 -142 -33 -105 0 -124 14 -123 89 0 56 17 114
18 65 1 -14 8 -49 16 -77 25 -82 42 -76 226 87 86 75 109 99 109 112 0 20 -57
70 -122 109 -56 32 -87 44 -133 49 l-60 6 -3 38 c-2 20 -1 37 2 37 3 0 35 -17
72 -37z m-3256 -20 c0 -42 -10 -50 -70 -55 -84 -8 -250 -111 -250 -156 0 -9
48 -60 107 -112 136 -121 162 -140 189 -140 24 0 36 27 51 115 6 36 7 38 14
15 14 -49 10 -107 -10 -131 -17 -22 -27 -24 -103 -24 -101 0 -139 16 -266 115
-163 126 -286 251 -266 270 16 15 255 52 362 56 97 3 108 6 165 38 34 19 65
35 70 35 4 1 7 -11 7 -26z m180 -110 c-1 -5 -12 -21 -27 -38 -26 -30 -26 -30
11 33 8 13 16 16 16 5z m2879 -58 c0 -5 -6 -1 -14 9 -8 11 -15 24 -15 29 0 4
-5 5 -11 1 -6 -3 -9 -15 -6 -25 3 -11 1 -19 -4 -19 -14 0 -11 48 4 53 12 5 47
-30 46 -48z m-2852 3 c-3 -8 -6 -5 -6 6 -1 11 2 17 5 13 3 -3 4 -12 1 -19z
m32 -130 c1 -5 -3 -8 -9 -8 -5 0 -10 12 -9 28 0 24 1 25 9 7 5 -11 9 -23 9
-27z m2781 -69 c0 -34 -4 -58 -9 -54 -5 3 -12 -7 -14 -22 -2 -18 -5 -11 -6 19
0 26 4 50 9 53 6 3 10 19 10 36 0 16 2 29 5 29 3 0 5 -27 5 -61z m-2761 -44
c4 5 131 -249 131 -261 0 -2 -29 -20 -65 -41 -35 -20 -63 -38 -61 -40 2 -2 34
12 72 31 38 19 71 33 73 30 2 -2 6 -23 8 -46 2 -23 11 -54 19 -69 8 -16 14
-31 14 -35 0 -14 -87 8 -149 37 l-64 29 7 63 c3 34 9 74 12 90 8 33 -11 37
-22 5 -8 -22 -8 -22 -15 7 -4 17 -7 42 -8 58 -1 23 3 27 27 28 l27 2 -26 4
c-23 4 -27 10 -33 50 -3 25 -6 69 -6 97 l0 51 27 -47 c14 -27 29 -46 32 -43z
m2728 -97 c-3 -7 -5 -2 -5 12 0 14 2 19 5 13 2 -7 2 -19 0 -25z m23 -62 c0
-21 -3 -27 -9 -17 -5 7 -14 10 -20 7 -12 -7 -16 35 -5 47 14 14 34 -7 34 -37z
m-40 -143 l0 -62 -42 -25 c-23 -14 -43 -24 -45 -22 -1 1 13 38 32 82 19 43 35
88 35 99 0 17 2 17 10 5 5 -8 10 -43 10 -77z m-2525 -39 c9 -15 12 -23 6 -20
-11 7 -35 46 -28 46 3 0 12 -12 22 -26z m-152 -153 c15 -6 42 -8 60 -5 58 10
90 9 94 -2 5 -15 -48 -71 -74 -79 -24 -7 -32 8 -11 21 7 4 8 3 4 -4 -5 -8 -1
-10 10 -5 15 5 14 7 -2 17 -11 5 -25 11 -33 12 -8 2 -18 9 -23 16 -8 10 -9 9
-5 -3 9 -27 -52 -23 -63 4 -5 12 -9 16 -9 8 -1 -8 -3 -12 -6 -9 -3 3 0 17 6
32 7 15 15 22 18 17 4 -5 19 -14 34 -20z m2547 -20 c-11 -22 -25 -43 -31 -47
-11 -7 1 21 29 64 23 35 24 26 2 -17z m148 -12 c14 -33 14 -34 -5 -16 -11 9
-28 17 -39 17 -10 0 -26 5 -34 11 -12 9 -11 10 7 6 13 -3 24 1 27 10 9 23 29
10 44 -28z m-2500 -11 c6 -6 37 -19 68 -29 48 -15 56 -15 61 -2 4 11 16 4 48
-27 l42 -42 -106 -100 c-126 -120 -150 -155 -32 -48 45 41 99 89 120 107 l38
32 49 -41 c27 -22 48 -46 46 -53 -1 -7 3 -26 9 -41 7 -16 13 -31 13 -34 3 -16
34 -49 41 -42 4 4 6 1 3 -7 -13 -42 -200 -58 -326 -27 -43 11 -76 25 -81 35
-14 25 -31 120 -34 189 -2 34 -7 65 -10 69 -4 3 -7 1 -7 -6 0 -7 -3 -10 -7 -8
-5 3 -14 -1 -21 -9 -7 -8 -9 -14 -5 -14 4 0 1 -5 -7 -10 -10 -6 -15 -26 -15
-64 0 -54 -1 -55 -25 -49 -14 3 -34 10 -45 16 -27 14 -104 71 -105 77 0 3 55
23 121 45 67 22 123 46 125 53 2 6 6 19 9 27 5 18 17 19 33 3z m2404 -84 c57
-20 109 -36 116 -37 34 -2 -82 -82 -148 -102 -22 -7 -23 -6 -12 8 8 9 11 21 7
27 -4 6 -2 17 4 24 16 19 -1 58 -35 85 -39 31 -50 15 -57 -81 -3 -46 -12 -103
-19 -128 -14 -45 -14 -45 -83 -63 -61 -15 -245 -31 -245 -21 0 2 30 19 68 38
37 19 85 48 106 65 l39 32 31 -29 c56 -51 72 -57 27 -10 l-43 46 43 54 c24 29
55 70 69 91 14 20 26 37 27 37 1 0 48 -16 105 -36z m-1979 -158 c11 -8 15 -20
11 -31 -6 -15 -4 -15 13 -5 17 11 28 9 74 -14 l54 -26 -69 4 c-71 4 -84 11
-104 59 -13 30 -7 34 21 13z m-553 -77 c-8 -14 -8 -24 -1 -33 8 -10 6 -19 -9
-36 -19 -22 -24 -35 -21 -52 0 -5 -4 -8 -10 -8 -8 0 -10 15 -5 46 4 34 3 43
-7 38 -6 -4 4 9 22 29 40 42 46 46 31 16z m1002 -116 c-4 -19 -11 -23 -42 -23
-24 0 -43 7 -54 19 -10 11 -23 18 -29 17 -7 -2 -8 -1 -4 2 4 2 2 14 -6 26
l-15 22 77 -20 c71 -18 77 -22 73 -43z m1513 57 c-3 -5 -12 -10 -18 -10 -7 0
-6 4 3 10 19 12 23 12 15 0z m-472 -11 c-22 -22 117 -115 159 -106 21 4 20
-41 -2 -108 -12 -36 -25 -67 -28 -69 -4 -2 -28 -6 -53 -10 -45 -7 -45 -7 -79
41 -19 26 -70 85 -114 131 -44 45 -75 82 -69 82 5 0 13 -3 17 -7 15 -15 46 -9
46 9 0 38 31 14 131 -99 56 -65 107 -120 113 -122 11 -4 -10 23 -110 140 -92
109 -91 106 -52 118 45 13 54 13 41 0z m517 -8 c-12 -23 -29 -35 -37 -27 -3 3
5 14 18 25 30 25 32 26 19 2z m-2040 -11 c-5 -8 -41 -53 -80 -100 -39 -47 -80
-97 -91 -112 -44 -60 -6 -22 103 103 97 112 113 127 116 106 2 -20 11 -26 45
-34 36 -8 48 -6 82 15 l40 23 -35 -31 c-73 -64 -108 -90 -112 -83 -3 5 -4 3
-2 -4 1 -6 -12 -28 -29 -50 -18 -21 -45 -55 -61 -77 l-29 -38 -66 6 c-36 4
-71 12 -78 19 -13 14 -38 86 -48 140 -7 36 -7 36 27 35 18 -1 45 5 58 13 14 7
27 13 30 14 3 0 23 17 43 38 29 28 45 37 67 35 22 -2 27 -5 20 -18z m310 10
c10 -6 2 -7 -25 -3 -49 7 -58 13 -19 13 16 0 36 -5 44 -10z m-915 -30 c10 -11
16 -20 13 -20 -3 0 -13 9 -23 20 -10 11 -16 20 -13 20 3 0 13 -9 23 -20z m144
-12 c12 -15 11 -18 -3 -18 -10 0 -16 8 -16 22 0 12 1 19 3 17 1 -2 9 -12 16
-21z m1119 1 l62 -11 0 -43 c0 -41 -3 -45 -45 -70 -41 -24 -44 -28 -33 -48 19
-36 -13 -5 -36 35 l-19 33 22 -19 c22 -20 22 -20 43 2 27 26 51 99 35 105 -6
2 -40 -9 -76 -24 -66 -26 -66 -26 -93 -7 -27 19 -36 47 -20 62 7 8 49 4 160
-15z m729 15 c-3 -3 -12 -4 -19 -1 -8 3 -5 6 6 6 11 1 17 -2 13 -5z m-463 -33
l59 -1 -23 -25 c-26 -27 -43 -26 -119 6 -43 19 -73 17 -38 -2 9 -6 15 -15 11
-20 -10 -17 27 -51 42 -38 10 8 11 5 7 -13 -4 -18 -2 -20 6 -8 5 8 13 12 16 8
5 -5 -62 -118 -71 -118 -1 0 3 13 9 29 8 22 8 33 -1 44 -13 16 -56 31 -47 17
3 -4 -4 -6 -14 -3 -16 4 -20 16 -23 69 l-3 65 65 -5 c36 -2 92 -5 124 -5z
m-1246 -54 c2 -28 7 -56 12 -61 36 -36 -50 -28 -88 7 l-24 22 49 42 c26 24 48
43 48 43 0 0 1 -24 3 -53z m2136 -32 c-23 -43 -52 -72 -40 -40 4 11 10 42 13
68 l6 48 20 -20 c20 -20 20 -20 1 -56z m-2248 33 l19 -21 -27 18 c-29 18 -34
25 -20 25 5 0 17 -10 28 -22z m204 -286 c0 -4 21 -7 46 -6 29 1 42 -2 36 -8
-13 -13 -95 -6 -100 10 -2 6 1 12 7 12 6 0 11 -4 11 -8z"/>
<path d="M4070 4179 c-30 -28 -50 -49 -44 -47 20 6 118 100 102 98 -2 -1 -28
-24 -58 -51z"/>
<path d="M4347 2239 c7 -7 15 -10 18 -7 3 3 -2 9 -12 12 -14 6 -15 5 -6 -5z"/>
</g>
</svg>
